<svg xmlns="http://www.w3.org/2000/svg" width="210.079" height="184.845" viewBox="0 0 210.079 184.845">
  <g id="error" transform="translate(-1.561 -0.82)">
    <path id="Caminho_288" data-name="Caminho 288" d="M701.708,475.812c0,18.552-11.029,25.03-24.634,25.03s-24.634-6.478-24.634-25.03,24.634-42.153,24.634-42.153S701.708,457.26,701.708,475.812Z" transform="translate(-490.068 -335.638)" fill="none"/>
    <ellipse id="Elipse_10" data-name="Elipse 10" cx="61.676" cy="4.771" rx="61.676" ry="4.771" transform="translate(85.188 171.116)" opacity="0.1"/>
    <path id="Caminho_295" data-name="Caminho 295" d="M414.474,368.965s18.056.334,14.712,3.511-15.883,0-15.883,0Z" transform="translate(-316.47 -288.674)" fill="#a0616a"/>
    <path id="Caminho_296" data-name="Caminho 296" d="M268.809,227.858s7.29-1.3,9.825,4.583,7.741,22.669,7.741,22.669,13.931,9.222,16.465,8.919,6.866.315,6.071,3.08-.442,5.9-2.271,6.283-4.739-3.283-6.965-1.517-22.07-4.685-23.344-6.022-11.861-30.284-11.861-30.284S264.893,227.763,268.809,227.858Z" transform="translate(-208.425 -186.15)" fill="#c55c01"/>
    <path id="Caminho_297" data-name="Caminho 297" d="M250.365,605.607l.836,7.022-7.022,1.839-4.013-1.839v-6.186Z" transform="translate(-174.346 -439.633)" fill="#a0616a"/>
    <path id="Caminho_298" data-name="Caminho 298" d="M181.431,622.078l.836,7.022-7.022,1.839-4.013-1.839v-6.186Z" transform="translate(-124.304 -451.59)" fill="#a0616a"/>
    <path id="Caminho_299" data-name="Caminho 299" d="M260.673,396.73l3.177,11.536,4.681,23.406a23.05,23.05,0,0,1-1.337,12.539c-2.675,6.855-7.524,29.258-6.52,30.6s-11.369,2.341-11.2,1,1.839-19.728,1.839-19.728,2.341-16.217,3.511-18.223-5.35-7.022-5.35-7.022-1.672,19.227-4.18,20.9-2.174,27.586-3.344,27.92-9.7,1.672-10.7,0,0-29.592,0-29.592,5.684-21.233,4.514-24.242-.5-15.883-.5-15.883-4.347-9.864-2.006-15.047Z" transform="translate(-183.985 -307.494)" fill="#005468"/>
    <path id="Caminho_300" data-name="Caminho 300" d="M291.023,145.611S284,154.3,284.336,158.15s-11.034-7.022-11.034-7.022,8.192-11.034,8.192-13.375S291.023,145.611,291.023,145.611Z" transform="translate(-214.837 -120.575)" fill="#a0616a"/>
    <circle id="Elipse_11" data-name="Elipse 11" cx="11.034" cy="11.034" r="11.034" transform="translate(65.069 6.227)" fill="#a0616a"/>
    <path id="Caminho_301" data-name="Caminho 301" d="M233.305,233.708a20.264,20.264,0,0,0-1.032,5.753c.057,1.152,3.115,1.908,7.343,2.4,3.921.46,8.848.694,13.327.814,4.7.127,8.908.127,10.929.127,6.019,0,1.17-3.845-1.17-5.684s-1.839-27.92-1.672-31.264-1.5-13.041-1.5-14.88-3.934-6.639-3.934-6.639-.914,2.627-4.593-.884a19.548,19.548,0,0,0-8.527-4.514c-3.678,1.337-9.864,16.05-10.2,18.558-.135,1.018-.023,6.233.2,12.186.329,8.7.9,18.989,1.3,20.081C234.091,230.625,233.745,232.07,233.305,233.708Z" transform="translate(-185.011 -150.727)" fill="#c55c01"/>
    <path id="Caminho_302" data-name="Caminho 302" d="M228.544,338.413l1.17,4.18-4.514,4.681-1.5-6.521Z" transform="translate(-162.389 -245.667)" fill="#a0616a"/>
    <path id="Caminho_303" data-name="Caminho 303" d="M296.5,692.546s3.511,4.013,6.186,1.338,2.508-4.347,3.009-4.347,8.025,6.688,8.025,6.688,12.873,3.009,5.852,5.183-26.917.669-26.917,0-.5-9.53,1.337-9.53Z" transform="translate(-228.842 -521.389)" fill="#005468"/>
    <path id="Caminho_304" data-name="Caminho 304" d="M227.568,709.017s3.511,4.013,6.186,1.337,2.508-4.347,3.009-4.347,8.025,6.688,8.025,6.688,12.873,3.009,5.852,5.183-26.917.669-26.917,0-.5-9.53,1.337-9.53Z" transform="translate(-178.8 -533.345)" fill="#005468"/>
    <path id="Caminho_305" data-name="Caminho 305" d="M280.986,104.241c-.356.23-.82.464-1.177.234a53.351,53.351,0,0,1-2.961-10.251,5.022,5.022,0,0,1,.3-3.65,8.953,8.953,0,0,0,.856-1.2,8.153,8.153,0,0,0,.2-2.22c.208-1.553,1.677-2.637,3.153-3.162a41.511,41.511,0,0,0,4.487-1.378,34.111,34.111,0,0,0,3.646-2.564,4.692,4.692,0,0,1,4.206-.83c1.221.492,1.981,1.737,3.135,2.37a9.146,9.146,0,0,0,2.566.734,16.422,16.422,0,0,1,6.671,3.1,4.843,4.843,0,0,1,1.214,1.251c1.481,2.438-1.17,5.752,0,8.354l-2.529-2a8.807,8.807,0,0,0-2.258-1.435,2.976,2.976,0,0,0-2.59.117c-1.068.663-1.357,2.049-1.73,3.249s-1.2,2.531-2.454,2.5c-1.709-.042-2.307-2.427-3.84-3.182a2.96,2.96,0,0,0-3.11.55,6.378,6.378,0,0,0-1.739,2.809,7.66,7.66,0,0,1-.871,1.963c-.459.627-1.046.677-1.537,1.145C283.35,101.964,282.565,103.221,280.986,104.241Z" transform="translate(-217.272 -78.171)" fill="#005468"/>
    <path id="Caminho_306" data-name="Caminho 306" d="M234,262.61a77.921,77.921,0,0,0,6.311,8.155c3.921.46,8.848.694,13.327.814a10.559,10.559,0,0,0-2.948-2.715c-2.173-1.338-7.356-17.22-7.356-17.22s6.353-16.384,8.025-22.57-4.848-9.7-4.848-9.7c-3.009-2.508-8.192,3.344-8.192,3.344s-2.645,7.978-5.146,15.864c.329,8.7.9,18.989,1.3,20.081C234.787,259.527,234.44,260.971,234,262.61Z" transform="translate(-185.706 -179.629)" opacity="0.1"/>
    <path id="Caminho_307" data-name="Caminho 307" d="M233.064,214.5s6.52,3.511,4.848,9.7-8.025,22.57-8.025,22.57,5.183,15.883,7.356,17.22,5.183,4.514,2.842,6.186-4.012,4.347-5.684,3.511-1.672-5.517-4.514-5.517-14.378-17.387-14.545-19.227,9.53-31.1,9.53-31.1S230.055,211.989,233.064,214.5Z" transform="translate(-172.76 -176.086)" fill="#c35900"/>
    <path id="Caminho_308" data-name="Caminho 308" d="M523.126,373.37l-1.881-1.881a5.85,5.85,0,0,0-8.273,0L476.49,407.971,440.008,371.49a5.85,5.85,0,0,0-8.273,0l-1.881,1.881a5.85,5.85,0,0,0,0,8.273l36.482,36.482-36.482,36.482a5.85,5.85,0,0,0,0,8.273l1.881,1.881a5.85,5.85,0,0,0,8.273,0l36.482-36.482,36.482,36.482a5.85,5.85,0,0,0,8.273,0l1.881-1.881a5.85,5.85,0,0,0,0-8.273l-36.482-36.482,36.482-36.482A5.85,5.85,0,0,0,523.126,373.37Z" transform="translate(-327.241 -289.263)" fill="#de842b"/>
    <path id="Caminho_309" data-name="Caminho 309" d="M429.643,591.878l35.4-35.4-.341-.341-33.756,33.756A5.827,5.827,0,0,0,429.643,591.878Z" transform="translate(-328.331 -424.55)" opacity="0.1"/>
    <path id="Caminho_310" data-name="Caminho 310" d="M430.44,374.556a5.85,5.85,0,0,1,8.273,0l36.482,36.482,36.482-36.482a5.85,5.85,0,0,1,8.273,0l1.881,1.881a5.85,5.85,0,0,1,1.3,6.289l1.083-1.083a5.85,5.85,0,0,0,0-8.273l-1.881-1.881a5.85,5.85,0,0,0-8.273,0L477.58,407.972,441.1,371.49a5.85,5.85,0,0,0-8.273,0l-1.881,1.881a5.827,5.827,0,0,0-1.3,1.983Z" transform="translate(-328.331 -289.263)" opacity="0.1"/>
    <path id="Caminho_311" data-name="Caminho 311" d="M635.629,547.436l-2.726,2.726,36.482,36.482a5.849,5.849,0,0,1,1.3,6.289l1.083-1.083a5.85,5.85,0,0,0,0-8.273Z" transform="translate(-475.885 -418.233)" opacity="0.1"/>
    <path id="Caminho_312" data-name="Caminho 312" d="M106.591,543.457c0,15.408-9.16,20.788-20.459,20.788s-20.459-5.38-20.459-20.788,20.459-35.01,20.459-35.01S106.591,528.049,106.591,543.457Z" transform="translate(-64.111 -389.929)" fill="none"/>
  </g>
</svg>
