<?xml version="1.0" encoding="iso-8859-1"?>
<!-- Generator: Adobe Illustrator 19.0.0, SVG Export Plug-In . SVG Version: 6.00 Build 0)  -->
<svg version="1.1" id="Layer_1" xmlns="http://www.w3.org/2000/svg" xmlns:xlink="http://www.w3.org/1999/xlink" x="0px" y="0px"
	 viewBox="0 0 512.002 512.002" style="enable-background:new 0 0 512.002 512.002;" xml:space="preserve">
<g>
	<g>
		<path fill="#005468" d="M335.444,93.144l-74.753-42.049c-2.911-1.639-6.469-1.639-9.384,0l-74.753,42.049c-3.792,2.133-5.668,6.557-4.565,10.765
			c1.103,4.21,4.906,7.146,9.257,7.146h149.506c4.351,0,8.155-2.936,9.258-7.146C341.113,99.701,339.237,95.277,335.444,93.144z
			 M217.781,91.915L256,70.416l38.219,21.499H217.781z"/>
	</g>
</g>
<g>
	<g>
		<path fill="#005468" d="M493.126,447.216H482.62v-32.888c0-5.872-4.762-10.633-10.633-10.633h-23.238v-24.24c0-5.292-4.072-9.626-9.252-10.059
			l-4.024-136.88h3.175c5.579,0,10.102-4.522,10.102-10.102v-24.241h23.238c5.872,0,10.633-4.762,10.633-10.633v-32.887h10.506
			c4.835,0,9.062-3.261,10.287-7.939c1.225-4.677-0.86-9.591-5.074-11.963L261.214,1.366c-3.236-1.821-7.189-1.821-10.426,0
			L13.662,134.75c-4.214,2.37-6.298,7.285-5.073,11.963c1.225,4.677,5.452,7.939,10.286,7.939H29.38v32.887
			c0,5.872,4.761,10.633,10.633,10.633h23.239v24.241c0,5.579,4.522,10.102,10.102,10.102h3.174l-4.024,136.88
			c-5.181,0.432-9.252,4.766-9.252,10.059v24.24H40.013c-5.873,0-10.633,4.762-10.633,10.633v32.888H18.874
			c-5.873,0-10.633,4.761-10.633,10.633v43.519c0,5.872,4.761,10.633,10.633,10.633h474.251c5.873,0,10.633-4.762,10.633-10.633
			v-43.521C503.759,451.976,498.998,447.216,493.126,447.216z M256,22.836l196.533,110.55H59.467L256,22.836z M50.647,176.906
			v-22.254h410.706v22.254H50.647z M428.544,390.087v13.607h-49.461v-13.607H428.544z M389.425,368.819l3.991-135.773h20.796
			l3.017,102.648l0.974,33.125H389.425z M427.838,212.312c-1.041-0.34-2.149-0.532-3.303-0.532h-41.445
			c-1.154,0-2.262,0.191-3.303,0.532h-0.705v-14.139h49.461v14.139H427.838z M291.681,369.395l-1.008-34.325l-3.015-102.554h3.175
			c5.579,0,10.102-4.522,10.102-10.102v-24.241h57.945v24.241c0,5.579,4.522,10.102,10.102,10.102h3.174l-4.025,136.879
			c-5.181,0.433-9.252,4.767-9.252,10.059v24.24h-57.945v-24.24C300.935,374.161,296.863,369.827,291.681,369.395z M280.731,390.087
			v13.607H231.27v-13.607H280.731z M241.612,368.822l3.991-135.774h20.795l3.991,135.774H241.612z M280.025,212.312
			c-1.041-0.34-2.149-0.532-3.303-0.532h-41.446c-1.154,0-2.261,0.191-3.303,0.532h-0.705v-14.139h49.463v14.139H280.025z
			 M143.867,369.396l-4.024-136.88h3.175c5.579,0,10.102-4.522,10.102-10.102v-24.241h57.946v24.241
			c0,5.579,4.522,10.102,10.102,10.102h3.174l-4.024,136.88c-5.181,0.432-9.252,4.766-9.252,10.059v24.24H153.12v-24.24
			C153.12,374.162,149.049,369.829,143.867,369.396z M132.917,390.087v13.607h-49.46v-13.607H132.917z M93.799,368.821
			l3.991-135.774h20.795l3.991,135.774H93.799z M132.212,212.312c-1.041-0.34-2.149-0.532-3.303-0.532H87.464
			c-1.154,0-2.261,0.191-3.303,0.532h-0.705v-14.139h49.46v14.139H132.212z M50.647,424.961h410.706v22.255H50.647V424.961z
			 M482.492,490.735H29.508v-22.254h10.506h431.973h10.506V490.735z"/>
	</g>
</g>
<g>
</g>
<g>
</g>
<g>
</g>
<g>
</g>
<g>
</g>
<g>
</g>
<g>
</g>
<g>
</g>
<g>
</g>
<g>
</g>
<g>
</g>
<g>
</g>
<g>
</g>
<g>
</g>
<g>
</g>
</svg>