<svg xmlns="http://www.w3.org/2000/svg" xmlns:xlink="http://www.w3.org/1999/xlink" width="215.985" height="165.139" viewBox="0 0 215.985 165.139"><defs><linearGradient id="a" x1="0.5" y1="1" x2="0.5" gradientUnits="objectBoundingBox"><stop offset="0" stop-color="gray" stop-opacity="0.251"/><stop offset="0.54" stop-color="gray" stop-opacity="0.122"/><stop offset="1" stop-color="gray" stop-opacity="0.102"/></linearGradient><linearGradient id="b" x1="0.5" y1="1" x2="0.5" xlink:href="#a"/></defs><g transform="translate(-14.797 -0.003)"><path d="M312.52,151.065c-5.352,11.039-16.218,18.421-27.479,23.289a104.46,104.46,0,0,1-48.321,8.056q-4.328-.288-8.63-.92a108.851,108.851,0,0,1-28.856-8.4q-3.976-1.791-7.791-3.909a99.661,99.661,0,0,1-12.177-7.964q-1.456-1.112-2.872-2.28c-.655-.54-1.3-1.092-1.962-1.627a24.756,24.756,0,0,0-4.415-3.007,15.764,15.764,0,0,0-1.478-.653c-5.051-1.921-10.876-1.2-16.135.3-4,1.14-7.9,2.7-11.9,3.815a39.477,39.477,0,0,1-5.42,1.152,28.844,28.844,0,0,1-12.177-1.07l-.336-.1q-.846-.266-1.678-.582l-.336-.129q-.806-.31-1.577-.667l-.336-.153q-.806-.375-1.577-.792c-.185-.1-.369-.2-.55-.3a32.965,32.965,0,0,1-7.887-6.141c-.066-.066-.129-.135-.2-.2-.32-.346-.634-.7-.939-1.059-.113-.133-.226-.266-.336-.4q-.542-.661-1.045-1.351c-.05-.066-.1-.135-.147-.2a29.122,29.122,0,0,1-3.4-6.141c-.028-.066-.054-.135-.079-.2q-.4-1.037-.735-2.109c-.091-.3-.177-.6-.254-.9-.026-.089-.05-.179-.073-.268a54.48,54.48,0,0,1-1.239-13.45v-1.581a153.8,153.8,0,0,1,1.225-21.976.917.917,0,0,1,.022-.149,68.635,68.635,0,0,1,1.472-7.215,53.222,53.222,0,0,1,2.479-7.311,67.922,67.922,0,0,1,10.1-16.083c10.1-12.4,23.348-22.8,38.852-26.7A57.176,57.176,0,0,1,203.1,52.23c4.109,3.271,7.8,7.144,12.415,9.652,4.028,2.183,8.743,3.088,13.058,1.37,3.565-1.42,5.885-2.125,9.889-1.909A82.893,82.893,0,0,1,262.7,66.419c.314.115.628.234.941.352,20.284,7.76,37.72,23.178,46.784,42.991q.361.785.7,1.583C316.528,123.969,318.482,138.762,312.52,151.065Z" transform="translate(-85.393 -40.04)" fill="#be4e00" opacity="0.1"/><ellipse cx="31.527" cy="3.061" rx="31.527" ry="3.061" transform="translate(152.262 159.019)" fill="#be4e00" opacity="0.1"/><rect width="191.407" height="108.426" rx="12.49" transform="translate(23.441 21.705)" fill="url(#a)"/><rect width="190.821" height="106.541" rx="12.49" transform="translate(23.746 23.229)" fill="#fff"/><rect width="190.821" height="106.541" rx="12.49" transform="translate(23.746 23.229)" fill="#fff"/><rect width="190.821" height="106.541" rx="12.49" transform="translate(23.746 23.229)" fill="#fff" opacity="0.04"/><path d="M334.473,149.29H145.589a.969.969,0,0,0-.969.969v4.095H335.433v-4.095a.969.969,0,0,0-.961-.969Z" transform="translate(-120.874 -127.283)" fill="#5a5773"/><g transform="translate(26.247 23.229)"><circle cx="1.309" cy="1.309" r="1.309" fill="#fff"/><circle cx="1.309" cy="1.309" r="1.309" transform="translate(3.525)" fill="#fff"/><circle cx="1.309" cy="1.309" r="1.309" transform="translate(7.049)" fill="#fff"/></g><rect width="51.209" height="4.346" transform="translate(39.462 36.593)" fill="#be4e00" opacity="0.2"/><rect width="159.389" height="66.861" transform="translate(39.462 54.021)" fill="#5a5773" opacity="0.1"/><path d="M559.943,265.074h-2.729v-5.3a10.9,10.9,0,1,0-21.8-.147v5.448h-2.723a4.556,4.556,0,0,0-4.542,4.542v21.8a4.556,4.556,0,0,0,4.542,4.542h27.251a4.554,4.554,0,0,0,4.54-4.542v-21.8A4.554,4.554,0,0,0,559.943,265.074Zm-12.034,14.169v7.807a1.629,1.629,0,0,1-1.511,1.635,1.593,1.593,0,0,1-1.668-1.591v-7.855a3.625,3.625,0,1,1,3.178,0Zm6.131-14.169H538.593v-5.448a7.72,7.72,0,0,1,15.44,0Z" transform="translate(-427.157 -206.693)" opacity="0.1"/><path d="M559.943,263.074h-2.729v-5.3a10.9,10.9,0,1,0-21.8-.147v5.448h-2.723a4.556,4.556,0,0,0-4.542,4.542v21.8a4.556,4.556,0,0,0,4.542,4.542h27.251a4.554,4.554,0,0,0,4.54-4.542v-21.8A4.554,4.554,0,0,0,559.943,263.074Zm-12.034,14.169v7.807a1.629,1.629,0,0,1-1.511,1.635,1.593,1.593,0,0,1-1.668-1.591v-7.855a3.625,3.625,0,1,1,3.178,0Zm6.131-14.169H538.593v-5.448a7.72,7.72,0,0,1,15.44,0Z" transform="translate(-427.157 -205.095)" fill="#de9628"/><rect width="16.133" height="3.809" transform="translate(182.718 47.586)" fill="#5a5773" opacity="0.1"/><path d="M886.4,402.081a5.737,5.737,0,0,0-.54-1.533l-2.417-3.609h.014a6.088,6.088,0,0,1,0-2.7c.381-.89-1.357-3.08-1.357-3.08a1.3,1.3,0,0,1,.34-1.227c.552-.677-.34-2.659-.34-2.659s-.423-4.139-.465-4.771-.383-4.137-.383-4.137l-.806-7.43-1.434-19.692-.026-.369c.177-.087.272-.141.272-.141l-.286-10.888.248-.224c2.163-1.958,7.152-6.489,7.1-6.588s-.6-7.567-.669-9.436a11.243,11.243,0,0,0-.858-3.863c-.125-.248-.485-1.881-.634-2.572-.04-.189-.066-.308-.066-.308s-1.462-2.788-1.335-4.054.381-2.215-2.737-2.659a12.082,12.082,0,0,1-4.177-1.456,11.885,11.885,0,0,0-2.993-1.5s-.874-1.611-1.482-1.065a8.461,8.461,0,0,1-.574-1.795l-.018-.113a5.936,5.936,0,0,0,2.344-3.356c.02-.077.036-.155.054-.232a.656.656,0,0,0,.187.034c.53,0,.856-.59,1.351-.777.2-.079.449-.091.6-.25a.59.59,0,0,0,.133-.445.889.889,0,0,0,0-.165.548.548,0,0,0,0-.058v.02c-.135-.733-.7-1.384-.641-2.129.06-.7.677-1.317.626-2a1.1,1.1,0,0,0-.014-.161v.024a1.724,1.724,0,0,0-.4-.713,2.288,2.288,0,0,0-.83-.7c-.28-.123-.6-.151-.866-.3-.769-.419-.767-1.511-1.225-2.256a2,2,0,0,0-1.867-.924c-.572.056-1.09.361-1.656.459a4.329,4.329,0,0,1-2.294-.4,6.316,6.316,0,0,0-2.264-.6,1.923,1.923,0,0,0-1.877,1.146c-.127.4-.064.836-.161,1.245a2.71,2.71,0,0,1-1.46,1.6c-.4.224-.882.479-1.007.9v-.032a.806.806,0,0,0-.02.1.767.767,0,0,0,0,.135,2.539,2.539,0,0,0,.256.842,2.322,2.322,0,0,1-.012,1.623c-.149.383-.4.719-.548,1.1a2.169,2.169,0,0,0-.133.552v-.032a2.215,2.215,0,0,0,0,.258,1.813,1.813,0,0,0,.2.846,1.518,1.518,0,0,0,.9.759c.4.093.655-.3,1.08-.2a1.7,1.7,0,0,1,.224.07c.014.091.028.181.044.27a5.919,5.919,0,0,0,2.042,3.458,1.286,1.286,0,0,0,.022.147h0a13.519,13.519,0,0,1,.167,2.429s-.634-.928-1.5.864a18.276,18.276,0,0,1-3.053,1.458c-.783.149-3.565,1.118-3.565,1.118a2.454,2.454,0,0,1-1.442.465c-.868,0-1.589,1.9-1.484,2.933s-.062,1.795-.87,1.837-.367,1.68-.361,1.708l-.075.352c-.157.721-.5,2.268-.62,2.51a11.28,11.28,0,0,0-.86,3.863c-.062,1.869-.6,9.309-.667,9.436-.042.083,3.376,3.206,5.778,5.39l.349.314-1.106,10.328a2.757,2.757,0,0,0,1.136,2.014c0,.121,0,.244-.012.371a12.913,12.913,0,0,1-.338,3.053c-.338.677-.254,4.306-.254,4.306s-.34,7.388-.763,8.191a5.59,5.59,0,0,0-.383,2.82c.127.33-.425,9.2-.425,9.2l-.423,3.97s.127,3.8-.256,3.883-.594,2.7-.594,2.7-1.355,1.857-.763,2.532-.087.973-.149,1.14-1.293.806-.4,3.166a.681.681,0,0,0,.028.068c-.834,1.158-3.476,4.894-3.315,5.462a1.5,1.5,0,0,0,.7.846,4.121,4.121,0,0,0,3.388,0c2.82-.908,2.618-1.563,2.618-1.563a1.2,1.2,0,0,1,1.188-1.14,3.338,3.338,0,0,0,2.036-1.16l-.137-.51-.187-.7c.022-.2.165-.554.806-.749.977-.3.721-2.153.721-2.153s-.085-1.942.338-2.2.256-3.462.256-3.462a23.792,23.792,0,0,1,1.144-3.885c.677-1.563,1.486-10.848,1.486-10.848a42.827,42.827,0,0,1,1.059-5.869,33.209,33.209,0,0,0,.977-4.981s3.14-6.081,3.18-7.432c0,0,.4-1.267.806.127S869.262,361,869.262,361l1.1,4.095,1.315,6.121.85,5.152a8.007,8.007,0,0,0,.2,2.618c.33.677.806,2.236.552,2.532s.508,1.69.721,1.984,0,6.544,0,6.544.975,5.319,2.375,6.244a1.71,1.71,0,0,0,.31.161c-.02.576-.04,1.347-.014,1.75a.669.669,0,0,0,.044.264,7.362,7.362,0,0,0,1.867,1.309c.3,0,1.356.739,1.4,1.1s3.1,1.877,3.533,1.921,2.532.421,2.82-.169a.977.977,0,0,0,.058-.546ZM878.889,326l.218.187s.224,1.742.383,2.264a4.372,4.372,0,0,1-.032,1.537,3.535,3.535,0,0,0,.223,1.108c.189.381-.383,1.208-.383,1.208h-.51l-.159-6.522Zm-15.152-19.472v-.038a.126.126,0,0,0-.006.038Zm-7.825,25.106a.735.735,0,0,1-.032-.538,1.6,1.6,0,0,0,.107-.3A4.619,4.619,0,0,0,856.1,330a.056.056,0,0,0,0-.01,4.262,4.262,0,0,1-.03-1.527c.151-.5.381-2.264.381-2.264l.145-.123.336-.292a2.379,2.379,0,0,1,.024-.288A22.41,22.41,0,0,1,857,328.8a4.9,4.9,0,0,0-.636,1.877,7.719,7.719,0,0,1-.131,1.567A3.212,3.212,0,0,1,855.912,331.637Z" transform="translate(-682.055 -239.078)" fill="url(#b)"/><path d="M934.1,357.293V359.8l-5.14,2.584s-5.1-3.088-3.845-4.316c.806-.777.651-2.912.433-4.381h0c-.127-.854-.274-1.48-.274-1.48s9.168-2.618,7.783-.63a3.127,3.127,0,0,0-.344,2.377A10.8,10.8,0,0,0,934.1,357.293Z" transform="translate(-744.012 -288.231)" fill="#c37098"/><path d="M866.245,441.825l-.663,8.161s-.993-.9-2.278-2.073c-2.383-2.173-5.766-5.281-5.726-5.364.062-.127.6-7.531.663-9.392a11.239,11.239,0,0,1,.85-3.843,23.9,23.9,0,0,0,.6-2.5c.048-.224.078-.369.078-.369l1.112-.447s4.633,5.168,4.633,5.263-.316,4.064-.316,4.064l-.328.286-.143.123s-.222,1.734-.379,2.254a4.046,4.046,0,0,0,.03,1.519h0a4.69,4.69,0,0,1-.115.806,1.682,1.682,0,0,1-.107.3.739.739,0,0,0,.032.536,3.247,3.247,0,0,0,.346.663Z" transform="translate(-690.235 -348.261)" fill="#3f3d56"/><path d="M1005.661,442.574c.048.1-4.892,4.608-7.033,6.556l-.971.88L997,441.849h1.7s.568-.82.379-1.2a3.5,3.5,0,0,1-.22-1.1,4.39,4.39,0,0,0,.03-1.529c-.157-.522-.379-2.254-.379-2.254l-.216-.185-.256-.224s-.316-3.97-.316-4.064,4.632-5.263,4.632-5.263l1.1.441s.024.119.064.308c.149.687.506,2.312.628,2.56a11.238,11.238,0,0,1,.85,3.843C1005.056,435.043,1005.6,442.447,1005.661,442.574Z" transform="translate(-801.575 -348.285)" fill="#3f3d56"/><path d="M1002.061,824.87c-.3.588-2.375.2-2.8.169s-3.458-1.557-3.5-1.913-1.092-1.092-1.386-1.092a7.362,7.362,0,0,1-1.849-1.3.642.642,0,0,1-.042-.262c-.044-.691.042-2.469.042-2.469l6.093.336,2.961,4.453a5.744,5.744,0,0,1,.536,1.525A1.008,1.008,0,0,1,1002.061,824.87Z" transform="translate(-797.956 -661.308)" fill="#3f3d56"/><path d="M1002.061,824.87c-.3.588-2.375.2-2.8.169s-3.458-1.557-3.5-1.913-1.092-1.092-1.386-1.092a7.362,7.362,0,0,1-1.849-1.3.642.642,0,0,1-.042-.262c-.044-.691.042-2.469.042-2.469l6.093.336,2.961,4.453a5.744,5.744,0,0,1,.536,1.525A1.008,1.008,0,0,1,1002.061,824.87Z" transform="translate(-797.956 -661.308)" opacity="0.1"/><path d="M1002.108,834.661c-.3.588-2.375.2-2.8.169s-3.458-1.557-3.5-1.913-1.092-1.092-1.386-1.092a7.367,7.367,0,0,1-1.849-1.3.644.644,0,0,1-.042-.262l1.974,1.249a8.33,8.33,0,0,1,1.6,1.283,11.434,11.434,0,0,0,3.207,1.49,15.092,15.092,0,0,1,2.854-.177A1.007,1.007,0,0,1,1002.108,834.661Z" transform="translate(-798.003 -671.098)" opacity="0.1"/><path d="M858.1,822.065a3.3,3.3,0,0,1-2.014,1.154,1.186,1.186,0,0,0-1.176,1.134s.2.653-2.584,1.557a4.071,4.071,0,0,1-3.356,0,1.5,1.5,0,0,1-.7-.842c-.189-.671,3.529-5.777,3.529-5.777l3.384-.2,2.417,1.092.371,1.384Z" transform="translate(-682.797 -662.178)" fill="#3f3d56"/><path d="M858.1,822.065a3.3,3.3,0,0,1-2.014,1.154,1.186,1.186,0,0,0-1.176,1.134s.2.653-2.584,1.557a4.071,4.071,0,0,1-3.356,0,1.5,1.5,0,0,1-.7-.842c-.189-.671,3.529-5.777,3.529-5.777l3.384-.2,2.417,1.092.371,1.384Z" transform="translate(-682.797 -662.178)" opacity="0.1"/><path d="M860.9,831.847A3.3,3.3,0,0,1,858.886,833a1.186,1.186,0,0,0-1.176,1.134s.2.653-2.584,1.557a4.071,4.071,0,0,1-3.355,0,20.625,20.625,0,0,0,5.438-1.513c.421-.421.947-1.577,1.3-1.6a14.03,14.03,0,0,0,2.262-1.243Z" transform="translate(-685.596 -671.961)" fill="none"/><path d="M860.9,831.847A3.3,3.3,0,0,1,858.886,833a1.186,1.186,0,0,0-1.176,1.134s.2.653-2.584,1.557a4.071,4.071,0,0,1-3.355,0,20.625,20.625,0,0,0,5.438-1.513c.421-.421.947-1.577,1.3-1.6a14.03,14.03,0,0,0,2.262-1.243Z" transform="translate(-685.596 -671.961)" opacity="0.1"/><path d="M895.64,620.5a6.059,6.059,0,0,0,0,2.689s-5.639.294-7.017-.63-2.352-6.22-2.352-6.22.2-6.218,0-6.512-.967-1.68-.715-1.974-.2-1.849-.546-2.522a7.546,7.546,0,0,1-.2-2.6l-.842-5.128-1.3-6.091-1.106-4.076s-1.134-3.319-1.519-4.705-.791-.127-.791-.127c-.04,1.345-3.15,7.4-3.15,7.4a33.287,33.287,0,0,1-.967,4.957,43.014,43.014,0,0,0-1.051,5.841s-.806,9.243-1.47,10.8a23.819,23.819,0,0,0-1.122,3.865s.169,3.194-.252,3.446-.352,2.185-.352,2.185.252,1.847-.715,2.143-.806.924-.806.924-5.378.882-6.26-1.472.336-2.981.4-3.15.737-.461.149-1.136.755-2.52.755-2.52.211-2.6.588-2.689.254-3.865.254-3.865l.419-3.95s.548-8.824.421-9.16a5.6,5.6,0,0,1,.379-2.82c.421-.806.755-8.153.755-8.153s-.085-3.611.252-4.284a12.479,12.479,0,0,0,.334-3.039c.036-.912.044-1.668.044-1.668l4.7-1.764,6.042-1.932,5.084,2.437,7.438,1.428.093,1.283,1.42,19.6.806,7.394s.336,3.486.379,4.117.461,4.749.461,4.749.882,1.974.336,2.647a1.276,1.276,0,0,0-.336,1.208S896.019,619.614,895.64,620.5Z" transform="translate(-694.392 -465.294)" fill="#3f3d56"/><path d="M934.5,351.577a3.126,3.126,0,0,0-.344,2.377,5.91,5.91,0,0,1-7.164-.268h0c-.127-.854-.274-1.48-.274-1.48S935.888,349.591,934.5,351.577Z" transform="translate(-745.451 -288.233)" opacity="0.1"/><path d="M929.2,318.371a5.873,5.873,0,1,1-1.72-4.181A5.9,5.9,0,0,1,929.2,318.371Z" transform="translate(-738.008 -257.597)" fill="#c37098"/><path d="M897.568,350l-1.934,34.431-10.5-2.205-2.081-13.8,2.06-18.53,1.551.2,2.735.348,2.709.167,2.937-.326Z" transform="translate(-705.144 -279.416)" opacity="0.1"/><path d="M897.568,351.255l-1.934,34.431-10.5-2.205-2.081-13.8,2.06-18.528,1.551.2,2.735.348,2.709.167,2.937-.326Z" transform="translate(-705.144 -280.422)" fill="#be4e00"/><path d="M939.23,396.3l3.782.127-1.063,1.488s.075,3.007.58,3.869.356,14.179.356,14.179l-1.007,1.911-1.722-2.143.022-17.583Z" transform="translate(-755.441 -324.543)" fill="#3f3d56"/><path d="M939.23,396.3l3.782.127-1.063,1.488s.075,3.007.58,3.869.356,14.179.356,14.179l-1.007,1.911-1.722-2.143.022-17.583Z" transform="translate(-755.441 -324.543)" opacity="0.1"/><path d="M927.679,336.86l-3.529,3.907,2.016,2.1,3.341-3.257Z" transform="translate(-737.966 -269.01)" opacity="0.1"/><path d="M927.679,335.61l-3.529,3.907,2.016,2.1,3.341-3.257Z" transform="translate(-737.966 -268.012)" fill="#be4e00"/><path d="M901.249,341.161l-3.573-3.571-.336,1.869,1.639,4.1Z" transform="translate(-716.556 -269.593)" opacity="0.1"/><path d="M901.877,339.911l-3.571-3.571-.336,1.869,1.64,4.1Z" transform="translate(-717.059 -268.595)" fill="#be4e00"/><path d="M911.182,577.728a17.438,17.438,0,0,1-5.438,1.573c-3.466.441-5.734-3.97-5.734-3.97l-1.323,1.722c-.421,1.829-6.828,2.29-9.432,1.6a4.167,4.167,0,0,1-1.495-.707c.036-.912.044-1.668.044-1.668l4.7-1.764,6.042-1.932,5.084,2.437,7.438,1.428Z" transform="translate(-714.337 -465.318)" opacity="0.1"/><path d="M924.522,391.3l-1.932,34.429-10.506-2.206L910,409.72l2.058-18.53,1.551.2a18.844,18.844,0,0,1-.228,2.014c-.252,1.178,1.3,9.539,1.3,9.539s2.955,9.376,4.284,8.024,3.223-8.487,3.223-8.487c1.283-2.647.022-10.071-.073-10.22a3,3,0,0,1-.121-.675Z" transform="translate(-732.098 -320.462)" opacity="0.1"/><path d="M998.537,508.483l.089,3.374-.971.88L997,504.57h1.45Z" transform="translate(-801.575 -411.006)" opacity="0.1"/><path d="M890.765,493.1h0a4.69,4.69,0,0,1-.115.806c0-.075,0-.117-.016-.123C890.573,493.767,890.646,493.458,890.765,493.1Z" transform="translate(-716.615 -401.846)" opacity="0.1"/><path d="M888.951,501.943l-.663,8.161s-.993-.9-2.278-2.073l.153-1.446s.542-3.553.739-5.305a3.241,3.241,0,0,0,.346.663Z" transform="translate(-712.94 -408.379)" opacity="0.1"/><path d="M880.227,375.122s-.628-.924-1.49.86a18.022,18.022,0,0,1-3.021,1.45c-.773.147-3.525,1.114-3.525,1.114a2.433,2.433,0,0,1-1.428.461c-.862,0-1.577,1.891-1.472,2.921s-.062,1.786-.86,1.829-.358,1.7-.358,1.7l5.315,6.093s.336,5.609.169,5.779a4.975,4.975,0,0,0-.63,1.869c.147.056-.806,6.26-.806,6.26l-1.281,12.038s0,2.014,2.606,2.709,9.017.236,9.43-1.593l1.323-1.724s2.268,4.413,5.734,3.972a16.668,16.668,0,0,0,5.674-1.7l-.379-14.427-.252-10.4,5.412-8.892s-1.45-2.773-1.323-4.028.377-2.206-2.711-2.647a11.856,11.856,0,0,1-4.139-1.45,11.83,11.83,0,0,0-2.961-1.49s-.866-1.611-1.468-1.059a19.813,19.813,0,0,1,.554,2.618,8.663,8.663,0,0,0,.189,2.038c.095.159,1.356,7.573.073,10.22,0,0-1.883,7.136-3.223,8.487S881.1,390.1,881.1,390.1s-1.555-8.363-1.3-9.539S880.227,375.122,880.227,375.122Z" transform="translate(-698.518 -307.252)" fill="#3f3d56"/><circle cx="0.924" cy="0.924" r="0.924" transform="translate(185.28 93.564)" fill="#3f3d56"/><circle cx="0.924" cy="0.924" r="0.924" transform="translate(185.28 97.923)" fill="#3f3d56"/><circle cx="0.924" cy="0.924" r="0.924" transform="translate(185.28 93.564)" opacity="0.1"/><circle cx="0.924" cy="0.924" r="0.924" transform="translate(185.28 97.923)" opacity="0.1"/><path d="M992.47,804.34a24.7,24.7,0,0,1,4.171.588C997.018,805.222,992.47,804.34,992.47,804.34Z" transform="translate(-797.958 -650.399)" stroke="#be4e00" stroke-miterlimit="10" stroke-width="1" opacity="0.1"/><path d="M880.3,789.53s.806,1.007.463,1.47S880.3,789.53,880.3,789.53Z" transform="translate(-708.38 -638.572)" stroke="#be4e00" stroke-miterlimit="10" stroke-width="1" opacity="0.1"/><path d="M885.1,805.4s1.47-.967,2.058-.324S885.1,805.4,885.1,805.4Z" transform="translate(-712.213 -650.811)" stroke="#be4e00" stroke-miterlimit="10" stroke-width="1" opacity="0.1"/><path d="M929.218,318.379a5.872,5.872,0,0,1-.189,1.492.671.671,0,0,1-.391-.657c.026-.24.185-.459.151-.7-.05-.367-.494-.516-.727-.806a1.874,1.874,0,0,1-.2-1.313c.024-.453-.091-1.007-.516-1.162-.127-.046-.266-.05-.389-.1-.334-.141-.437-.556-.661-.842a1.741,1.741,0,0,0-2.014-.29,9.57,9.57,0,0,1-.906.379,1.184,1.184,0,0,1-.949-.07c-.133-.085-.24-.2-.377-.286a1.3,1.3,0,0,0-1.446.352,5,5,0,0,1-1.208,1.041c-.224.1-.5.161-.6.379a.8.8,0,0,0-.065.377,11.253,11.253,0,0,1-.07,2.346c-.1.493-.451,1.053-.953.993a.938.938,0,0,1-.183-.046,5.9,5.9,0,1,1,11.7-1.092Z" transform="translate(-738.023 -257.605)" opacity="0.1"/><path d="M907.926,302.793c.151.034.294.113.449.133.5.06.848-.5.953-.993a10.863,10.863,0,0,0,.072-2.346.768.768,0,0,1,.063-.377c.115-.217.391-.278.6-.379a5.216,5.216,0,0,0,1.208-1.041,1.287,1.287,0,0,1,1.444-.352c.135.081.244.2.377.286a1.208,1.208,0,0,0,.951.07c.312-.093.6-.256.9-.379a1.749,1.749,0,0,1,2.014.288c.224.288.326.7.661.842.123.052.262.058.389.1.425.159.534.709.516,1.162a1.953,1.953,0,0,0,.2,1.313c.234.286.677.435.727.806.032.238-.125.459-.151.7a.669.669,0,0,0,.63.713c.524,0,.848-.586,1.337-.773.2-.079.445-.091.6-.25a.667.667,0,0,0,.125-.546c-.1-.771-.717-1.442-.651-2.216.062-.741.749-1.388.6-2.117a1.717,1.717,0,0,0-.4-.719,2.328,2.328,0,0,0-.822-.695,8.479,8.479,0,0,1-.86-.3c-.761-.417-.759-1.5-1.208-2.246a1.972,1.972,0,0,0-1.837-.914c-.566.056-1.08.357-1.64.457a4.251,4.251,0,0,1-2.272-.4,6.213,6.213,0,0,0-2.242-.6,1.911,1.911,0,0,0-1.861,1.14c-.125.4-.062.834-.159,1.239a2.7,2.7,0,0,1-1.446,1.587c-.441.246-.971.528-1.023,1.029a2.121,2.121,0,0,0,.252.912,2.322,2.322,0,0,1-.012,1.611c-.147.381-.393.715-.542,1.094a1.964,1.964,0,0,0,.052,1.611,1.5,1.5,0,0,0,.92.755C907.253,303.094,907.5,302.7,907.926,302.793Z" transform="translate(-728.693 -241.266)" fill="#3f3d56"/><g transform="translate(177.042 55.529)" opacity="0.1"><path d="M909.325,335.315c-.1.494-.453,1.053-.955.993-.155-.02-.3-.1-.449-.133-.421-.093-.671.3-1.068.2a1.507,1.507,0,0,1-.922-.755,1.744,1.744,0,0,1-.187-.659,1.839,1.839,0,0,0,.187,1.037,1.507,1.507,0,0,0,.922.755c.4.093.646-.3,1.068-.2a4.567,4.567,0,0,0,.449.131c.5.062.85-.5.955-.991a5.809,5.809,0,0,0,.1-1.323,4.959,4.959,0,0,1-.1.945Z" transform="translate(-905.733 -330.615)"/><path d="M908.328,317.619a2.317,2.317,0,0,0-.133-.973,5.146,5.146,0,0,1-.232-.637.934.934,0,0,0-.02.1,2.157,2.157,0,0,0,.252.912A2.308,2.308,0,0,1,908.328,317.619Z" transform="translate(-907.494 -315.953)"/><path d="M983.841,318.73c-.095.572-.558,1.11-.6,1.712a1.432,1.432,0,0,0,0,.31C983.337,320.049,983.96,319.427,983.841,318.73Z" transform="translate(-967.62 -318.125)"/><path d="M975.773,339.83a.474.474,0,0,1-.115.226c-.149.159-.4.171-.6.25-.489.187-.806.779-1.337.773a.675.675,0,0,1-.6-.467,1.048,1.048,0,0,0-.028.133.669.669,0,0,0,.63.711c.526,0,.848-.586,1.337-.771.2-.079.447-.091.6-.25a.666.666,0,0,0,.125-.546C975.779,339.864,975.775,339.848,975.773,339.83Z" transform="translate(-959.518 -334.975)"/><path d="M970.117,333.186c-.05-.367-.493-.516-.727-.806a1.1,1.1,0,0,1-.222-.661,1.487,1.487,0,0,0,.222,1.039c.232.282.584.4.7.693A.645.645,0,0,0,970.117,333.186Z" transform="translate(-956.388 -328.499)"/><path d="M932.992,318.306c.016-.453-.093-1.007-.518-1.162-.125-.046-.264-.052-.387-.1-.334-.141-.439-.556-.661-.842a1.745,1.745,0,0,0-2.014-.29c-.3.123-.59.286-.9.379a1.184,1.184,0,0,1-.949-.07c-.133-.085-.242-.2-.377-.286a1.3,1.3,0,0,0-1.446.352,5,5,0,0,1-1.208,1.041c-.226.1-.5.161-.616.379a.791.791,0,0,0-.062.377v.236a.573.573,0,0,1,.058-.234c.117-.218.391-.278.616-.379a5.216,5.216,0,0,0,1.208-1.041,1.289,1.289,0,0,1,1.446-.352c.135.081.244.2.377.284a1.176,1.176,0,0,0,.949.071,9.315,9.315,0,0,0,.9-.377,1.746,1.746,0,0,1,2.014.288c.221.286.326.7.661.842.123.052.262.058.387.1a.967.967,0,0,1,.512.9Z" transform="translate(-920.199 -315.727)"/></g><g transform="translate(179.915 58.634)" opacity="0.1"><path d="M920,332.726a1.545,1.545,0,0,1,1.164-1.444,4.834,4.834,0,0,1,2.715.123c1.911.632-.242,2.908-.242,2.908s-1.432,1.41-2.767.425a2.093,2.093,0,0,1-.779-1.208A3.084,3.084,0,0,1,920,332.726Z" transform="translate(-919.997 -331.144)"/><path d="M953.653,332.727a1.545,1.545,0,0,0-1.166-1.444,4.834,4.834,0,0,0-2.713.123c-1.911.632.242,2.908.242,2.908s1.43,1.41,2.767.425a2.092,2.092,0,0,0,.779-1.208A3.079,3.079,0,0,0,953.653,332.727Z" transform="translate(-943.144 -331.145)"/><path d="M910.5,291.408v.095h3.49v-.113Z" transform="translate(-906.981 -291.332)"/><path d="M942.617,334.331h.111v-.32a.917.917,0,0,1,.943,0v.286h.2v-.187h-.1s.04-.389-.616-.326c0,0-.528-.05-.516.284h-.121Z" transform="translate(-937.984 -333.246)"/></g><path d="M920,332.08a1.545,1.545,0,0,1,1.164-1.444,4.861,4.861,0,0,1,2.715.123c1.911.634-.242,2.908-.242,2.908s-1.432,1.41-2.767.425a2.081,2.081,0,0,1-.779-1.208A3.063,3.063,0,0,1,920,332.08Z" transform="translate(-740.081 -271.995)" fill="#be4e00"/><path d="M953.653,332.08a1.545,1.545,0,0,0-1.166-1.444,4.852,4.852,0,0,0-2.713.123c-1.911.634.242,2.908.242,2.908s1.43,1.41,2.767.425a2.08,2.08,0,0,0,.779-1.208A3.06,3.06,0,0,0,953.653,332.08Z" transform="translate(-763.229 -271.995)" fill="#be4e00"/><path d="M910.5,290.778v.1h3.49v-.115Z" transform="translate(-727.065 -232.195)" fill="#be4e00"/><path d="M942.617,333.7h.111v-.32a.923.923,0,0,1,.943,0v.288h.2v-.189h-.1s.04-.387-.616-.326c0,0-.528-.048-.516.284h-.121Z" transform="translate(-758.068 -274.11)" fill="#be4e00"/></g></svg>