<svg id="Camada_1" data-name="Camada 1" xmlns="http://www.w3.org/2000/svg" viewBox="0 0 264.66 63.73"><defs><style>.cls-1{fill:#fff;}</style></defs><title>Logo_PresencaV2_branco-Horizontal</title><path class="cls-1" d="M2061.58,1124.58a3.72,3.72,0,0,0-1-2.73,4.66,4.66,0,0,0-3.41-1h-2.67v7.61h2.65c1.73,0,2.9-.37,3.55-1.12a4,4,0,0,0,.88-2.74m8.24-.09a11.44,11.44,0,0,1-2,6.85q-2.53,3.51-8.4,3.51h-5V1145h-8v-30.58h12.65c3.6,0,6.34,1,8.2,3.15a10,10,0,0,1,2.42,6.92" transform="translate(-1970.95 -1099.04)"/><path class="cls-1" d="M2088.93,1131a7.22,7.22,0,0,0-3.13-.74c-2.41,0-4,1-4.69,3a8.43,8.43,0,0,0-.4,2.89v8.9h-7.37v-20.79h7.37v3.4a8.11,8.11,0,0,1,2.5-2.62,8.33,8.33,0,0,1,4.29-1.07c.39,0,.86,0,1.43.06Zm0,0" transform="translate(-1970.95 -1099.04)"/><path class="cls-1" d="M2107.39,1131.78c-.52-2.34-1.91-3.52-4.17-3.52a4.2,4.2,0,0,0-3,1.12,4.25,4.25,0,0,0-1.16,2.4Zm6.88,4.19h-15.44q0,4.68,4.5,4.68a3.89,3.89,0,0,0,3.52-2H2114a9.46,9.46,0,0,1-2.51,4.35,11.34,11.34,0,0,1-8,2.8q-6.4,0-9.63-3.9a10.76,10.76,0,0,1-2.42-7.1,11.15,11.15,0,0,1,3-8.09c2-2.08,4.87-3.11,8.54-3.11q6.78,0,9.7,4.93a12.54,12.54,0,0,1,1.64,6.47Zm0,0" transform="translate(-1970.95 -1099.04)"/><path class="cls-1" d="M2135.37,1138a7,7,0,0,1-2.38,5.43q-2.67,2.37-7.5,2.37a16,16,0,0,1-8.31-2.4l2.66-5.19a10.9,10.9,0,0,0,5.86,2.06c1.53,0,2.3-.53,2.3-1.59a1.4,1.4,0,0,0-.81-1.28,10.83,10.83,0,0,0-2.32-.69,20.78,20.78,0,0,1-2.66-.7,5,5,0,0,1-3-2.73,6.22,6.22,0,0,1-.42-2.41,6.81,6.81,0,0,1,1.86-4.76c1.59-1.75,4.06-2.62,7.39-2.62a17.65,17.65,0,0,1,6.74,1.34l-2.49,4.75a8.37,8.37,0,0,0-3.92-1.07c-1.47,0-2.21.51-2.21,1.53a1.27,1.27,0,0,0,.89,1.13,13.48,13.48,0,0,0,2.37.61,8.51,8.51,0,0,1,4.24,1.92,5.71,5.71,0,0,1,1.73,4.3" transform="translate(-1970.95 -1099.04)"/><path class="cls-1" d="M2154.29,1131.78c-.52-2.34-1.9-3.52-4.16-3.52a4.2,4.2,0,0,0-3,1.12,4.25,4.25,0,0,0-1.16,2.4Zm6.88,4.19h-15.43q0,4.68,4.5,4.68a3.9,3.9,0,0,0,3.52-2h7.12a9.54,9.54,0,0,1-2.51,4.35,11.34,11.34,0,0,1-8,2.8q-6.4,0-9.63-3.9a10.76,10.76,0,0,1-2.42-7.1,11.11,11.11,0,0,1,3-8.09c2-2.08,4.85-3.11,8.53-3.11q6.78,0,9.7,4.93a12.54,12.54,0,0,1,1.63,6.47Zm0,0" transform="translate(-1970.95 -1099.04)"/><path class="cls-1" d="M2187.29,1145h-7.37v-10.52a7.14,7.14,0,0,0-.62-3.64,3.11,3.11,0,0,0-2.74-1.32,3.79,3.79,0,0,0-2.8,1.14,4.33,4.33,0,0,0-1,3.2V1145h-7.37v-20.79h7.37v2.62a9.17,9.17,0,0,1,2.35-2.08,8.73,8.73,0,0,1,4.36-1,8.1,8.1,0,0,1,5.46,1.81q2.38,2.07,2.39,6.19Zm0,0" transform="translate(-1970.95 -1099.04)"/><path class="cls-1" d="M2208,1144.55a10.6,10.6,0,0,1-4.8,1.14,11.32,11.32,0,0,1-9-3.85,11,11,0,0,1,0-14.43,11.32,11.32,0,0,1,9-3.85,10.2,10.2,0,0,1,4.8,1.17V1131a6.6,6.6,0,0,0-3.8-1.36,4.94,4.94,0,0,0-3.62,1.41,5.26,5.26,0,0,0,0,7.21,4.94,4.94,0,0,0,3.62,1.41,6.81,6.81,0,0,0,3.8-1.34Zm0,0" transform="translate(-1970.95 -1099.04)"/><path class="cls-1" d="M2228.47,1134.6a4.73,4.73,0,0,0-8.32-3,4.66,4.66,0,0,0,0,6.11,4.46,4.46,0,0,0,3.59,1.65,4.59,4.59,0,0,0,3.35-1.36,4.52,4.52,0,0,0,1.38-3.35m7.14,10.4h-7.37v-2.31a7.75,7.75,0,0,1-2.12,1.93,8.64,8.64,0,0,1-4.28,1.05A10.12,10.12,0,0,1,2215,1143a11.63,11.63,0,0,1,.09-16.91,10,10,0,0,1,6.74-2.53,9.69,9.69,0,0,1,4.16.92,8.41,8.41,0,0,1,2.3,1.77v-2h7.37Zm0,0" transform="translate(-1970.95 -1099.04)"/><rect class="cls-1" x="227.69" y="44.52" width="7.66" height="4.15"/><path class="cls-1" d="M1978.74,1151.79a.52.52,0,0,0,.1.11c74.93-27-4.44-34.9-4.71-34.92a31.74,31.74,0,0,0-3.18,13.38c51-7.62,12.69,18.23,7.79,21.43" transform="translate(-1970.95 -1099.04)"/><path class="cls-1" d="M2014.27,1113c6.33,1.2,15.39,3.4,19,8.68a31.86,31.86,0,0,0-57.14-8.23c1.29-.71,18.94-4.08,38.11-.45" transform="translate(-1970.95 -1099.04)"/><path class="cls-1" d="M1984.32,1156.86a31.86,31.86,0,0,0,50.35-25.95c-3.24,7.29-16.78,16.32-50.35,25.95" transform="translate(-1970.95 -1099.04)"/></svg>