<svg xmlns="http://www.w3.org/2000/svg" width="27.727" height="27.728" viewBox="0 0 27.727 27.728">
  <g id="logo-card" transform="translate(0.001 -0.012)">
    <path id="Caminho_9" data-name="Caminho 9" d="M1974.339,1132.124a.2.2,0,0,0,.044.048c32.6-11.748-1.932-15.187-2.05-15.2a13.824,13.824,0,0,0-1.384,5.823c22.187-3.316,5.522,7.931,3.389,9.324" transform="translate(-1970.95 -1109.166)" fill="#666666"/>
    <path id="Caminho_10" data-name="Caminho 10" d="M1992.728,1105.121c2.754.522,6.7,1.48,8.268,3.777a13.864,13.864,0,0,0-24.864-3.581c.561-.309,8.241-1.775,16.583-.2" transform="translate(-1973.877 -1099.04)" fill="#666666"/>
    <path id="Caminho_11" data-name="Caminho 11" d="M1984.32,1142.2a13.864,13.864,0,0,0,21.909-11.292c-1.41,3.172-7.3,7.1-21.909,11.292" transform="translate(-1978.502 -1117.035)" fill="#666666"/>
  </g>
</svg>
