<svg class="lds-spinner" width="200px"  height="200px"  xmlns="http://www.w3.org/2000/svg" xmlns:xlink="http://www.w3.org/1999/xlink" viewBox="0 0 100 100" preserveAspectRatio="xMidYMid" style="background: none;"><g transform="rotate(0 50 50)">
  <rect x="46" y="7.5" rx="19.32" ry="3.15" width="8" height="25" fill="#fff">
    <animate attributeName="opacity" values="1;0" keyTimes="0;1" dur="1.5s" begin="-1.3636363636363635s" repeatCount="indefinite"></animate>
  </rect>
</g><g transform="rotate(32.72727272727273 50 50)">
  <rect x="46" y="7.5" rx="19.32" ry="3.15" width="8" height="25" fill="#fff">
    <animate attributeName="opacity" values="1;0" keyTimes="0;1" dur="1.5s" begin="-1.2272727272727273s" repeatCount="indefinite"></animate>
  </rect>
</g><g transform="rotate(65.45454545454545 50 50)">
  <rect x="46" y="7.5" rx="19.32" ry="3.15" width="8" height="25" fill="#fff">
    <animate attributeName="opacity" values="1;0" keyTimes="0;1" dur="1.5s" begin="-1.0909090909090908s" repeatCount="indefinite"></animate>
  </rect>
</g><g transform="rotate(98.18181818181819 50 50)">
  <rect x="46" y="7.5" rx="19.32" ry="3.15" width="8" height="25" fill="#fff">
    <animate attributeName="opacity" values="1;0" keyTimes="0;1" dur="1.5s" begin="-0.9545454545454546s" repeatCount="indefinite"></animate>
  </rect>
</g><g transform="rotate(130.9090909090909 50 50)">
  <rect x="46" y="7.5" rx="19.32" ry="3.15" width="8" height="25" fill="#fff">
    <animate attributeName="opacity" values="1;0" keyTimes="0;1" dur="1.5s" begin="-0.8181818181818182s" repeatCount="indefinite"></animate>
  </rect>
</g><g transform="rotate(163.63636363636363 50 50)">
  <rect x="46" y="7.5" rx="19.32" ry="3.15" width="8" height="25" fill="#fff">
    <animate attributeName="opacity" values="1;0" keyTimes="0;1" dur="1.5s" begin="-0.6818181818181818s" repeatCount="indefinite"></animate>
  </rect>
</g><g transform="rotate(196.36363636363637 50 50)">
  <rect x="46" y="7.5" rx="19.32" ry="3.15" width="8" height="25" fill="#fff">
    <animate attributeName="opacity" values="1;0" keyTimes="0;1" dur="1.5s" begin="-0.5454545454545454s" repeatCount="indefinite"></animate>
  </rect>
</g><g transform="rotate(229.0909090909091 50 50)">
  <rect x="46" y="7.5" rx="19.32" ry="3.15" width="8" height="25" fill="#fff">
    <animate attributeName="opacity" values="1;0" keyTimes="0;1" dur="1.5s" begin="-0.4090909090909091s" repeatCount="indefinite"></animate>
  </rect>
</g><g transform="rotate(261.8181818181818 50 50)">
  <rect x="46" y="7.5" rx="19.32" ry="3.15" width="8" height="25" fill="#fff">
    <animate attributeName="opacity" values="1;0" keyTimes="0;1" dur="1.5s" begin="-0.2727272727272727s" repeatCount="indefinite"></animate>
  </rect>
</g><g transform="rotate(294.54545454545456 50 50)">
  <rect x="46" y="7.5" rx="19.32" ry="3.15" width="8" height="25" fill="#fff">
    <animate attributeName="opacity" values="1;0" keyTimes="0;1" dur="1.5s" begin="-0.13636363636363635s" repeatCount="indefinite"></animate>
  </rect>
</g><g transform="rotate(327.27272727272725 50 50)">
  <rect x="46" y="7.5" rx="19.32" ry="3.15" width="8" height="25" fill="#fff">
    <animate attributeName="opacity" values="1;0" keyTimes="0;1" dur="1.5s" begin="0s" repeatCount="indefinite"></animate>
  </rect>
</g></svg>